{
  "accessors": [
    {
      "bufferView": 2,
      "componentType": 5126,
      "count": 59017,
      "max": [
        2.335162878036499,
        2.62436580657959,
        5.125246047973633
      ],
      "min": [
        -12.380563735961914,
        -2.665435791015625,
        -2.2100934982299805
      ],
      "type": "VEC3"
    },
    {
      "bufferView": 2,
      "byteOffset": 708204,
      "componentType": 5126,
      "count": 59017,
      "max": [
        1.0,
        1.0,
        1.0
      ],
      "min": [
        -1.0,
        -1.0,
        -1.0
      ],
      "type": "VEC3"
    },
    {
      "bufferView": 3,
      "componentType": 5126,
      "count": 59017,
      "max": [
        1.0,
        1.0,
        1.0,
        1.0
      ],
      "min": [
        -1.0,
        -1.0,
        -1.0,
        -1.0
      ],
      "type": "VEC4"
    },
    {
      "bufferView": 1,
      "componentType": 5126,
      "count": 59017,
      "max": [
        0.9991214275360107,
        0.9983504414558411
      ],
      "min": [
        0.0022896728478372097,
        0.0003441646695137024
      ],
      "type": "VEC2"
    },
    {
      "bufferView": 0,
      "componentType": 5125,
      "count": 215178,
      "type": "SCALAR"
    }
  ],
  "asset": {
    "extras": {
      "author": "rautkrutant055 (https://sketchfab.com/rautkrutant055)",
      "license": "CC-BY-4.0 (http://creativecommons.org/licenses/by/4.0/)",
      "source": "https://sketchfab.com/3d-models/low-poly-racing-bike-557f70513c63494abfb289a3691557ba",
      "title": "Low Poly Racing Bike"
    },
    "generator": "Sketchfab-10.64.0",
    "version": "2.0"
  },
  "bufferViews": [
    {
      "buffer": 0,
      "byteLength": 860712,
      "name": "floatBufferViews",
      "target": 34963
    },
    {
      "buffer": 0,
      "byteLength": 472136,
      "byteOffset": 860712,
      "byteStride": 8,
      "name": "floatBufferViews",
      "target": 34962
    },
    {
      "buffer": 0,
      "byteLength": 1416408,
      "byteOffset": 1332848,
      "byteStride": 12,
      "name": "floatBufferViews",
      "target": 34962
    },
    {
      "buffer": 0,
      "byteLength": 944272,
      "byteOffset": 2749256,
      "byteStride": 16,
      "name": "floatBufferViews",
      "target": 34962
    }
  ],
  "buffers": [
    {
      "byteLength": 3693528,
      "uri": "scene.bin"
    }
  ],
  "images": [
    {
      "uri": "textures/Honda_BIke_baseColor.png"
    },
    {
      "uri": "textures/Honda_BIke_metallicRoughness.png"
    },
    {
      "uri": "textures/Honda_BIke_normal.png"
    }
  ],
  "materials": [
    {
      "doubleSided": true,
      "name": "Honda_BIke",
      "normalTexture": {
        "index": 2,
        "scale": 0.4743939486416903
      },
      "occlusionTexture": {
        "index": 1
      },
      "pbrMetallicRoughness": {
        "baseColorTexture": {
          "index": 0
        },
        "metallicFactor": 0.941060615308357,
        "metallicRoughnessTexture": {
          "index": 1
        }
      }
    }
  ],
  "meshes": [
    {
      "name": "Plane687_Honda_BIke_0",
      "primitives": [
        {
          "attributes": {
            "NORMAL": 1,
            "POSITION": 0,
            "TANGENT": 2,
            "TEXCOORD_0": 3
          },
          "indices": 4,
          "material": 0,
          "mode": 4
        }
      ]
    }
  ],
  "nodes": [
    {
      "children": [
        1
      ],
      "matrix": [
        1.0,
        0.0,
        0.0,
        0.0,
        0.0,
        2.220446049250313e-16,
        -1.0,
        0.0,
        0.0,
        1.0,
        2.220446049250313e-16,
        0.0,
        0.0,
        0.0,
        0.0,
        1.0
      ],
      "name": "Sketchfab_model"
    },
    {
      "children": [
        2
      ],
      "matrix": [
        1.0,
        0.0,
        0.0,
        0.0,
        0.0,
        0.0,
        1.0,
        0.0,
        0.0,
        -1.0,
        0.0,
        0.0,
        0.0,
        0.0,
        0.0,
        1.0
      ],
      "name": "26f6573beeaf42c6ba967fc966dfebfc.fbx"
    },
    {
      "children": [
        3
      ],
      "name": "RootNode"
    },
    {
      "children": [
        4
      ],
      "matrix": [
        100.0,
        2.2204468433437005e-14,
        -2.220447108041497e-14,
        0.0,
        -2.2204467462847586e-14,
        -1.629206793918314e-05,
        -99.99999999999868,
        0.0,
        -2.2204472051004224e-14,
        99.99999999999868,
        -1.629206793918314e-05,
        0.0,
        522.7349853515625,
        221.99928283691406,
        -1.1866511106491089,
        1.0
      ],
      "name": "Plane687"
    },
    {
      "mesh": 0,
      "name": "Plane687_Honda_BIke_0"
    }
  ],
  "samplers": [
    {
      "magFilter": 9729,
      "minFilter": 9987,
      "wrapS": 10497,
      "wrapT": 10497
    }
  ],
  "scene": 0,
  "scenes": [
    {
      "name": "Sketchfab_Scene",
      "nodes": [
        0
      ]
    }
  ],
  "textures": [
    {
      "sampler": 0,
      "source": 0
    },
    {
      "sampler": 0,
      "source": 1
    },
    {
      "sampler": 0,
      "source": 2
    }
  ]
}
